<?xml version="1.0" encoding="utf-8"?>
<!-- Generator: Adobe Illustrator 18.0.0, SVG Export Plug-In . SVG Version: 6.00 Build 0)  -->
<!DOCTYPE svg PUBLIC "-//W3C//DTD SVG 1.1//EN" "http://www.w3.org/Graphics/SVG/1.1/DTD/svg11.dtd">
<svg version="1.1" id="Layer_1" xmlns="http://www.w3.org/2000/svg" xmlns:xlink="http://www.w3.org/1999/xlink" x="0px" y="0px"
	 viewBox="305.5 183 189 34" enable-background="new 305.5 183 189 34" xml:space="preserve">
<path fill="#4D4F50" d="M358.4,205.6c-2.9,0-4.7-1.7-4.7-5.4c0-3.6,1.8-5.4,4.7-5.4c1.1,0,2.2,0.4,3.1,0.9l1.8-3.5
	c-1.5-0.8-3.3-1.3-5.2-1.3c-5.5,0-9.4,3.3-9.4,9.2c0,5.8,3.9,9.2,9.4,9.2c1.6,0,3.1-0.4,4.5-0.9l-1.7-3.4
	C360.1,205.4,359.2,205.6,358.4,205.6L358.4,205.6z M437.3,199.6c0.7,0,1.5,0.3,2,0.8l1-3c-1.1-0.7-2.4-1-3.9-1
	c-3.8,0-6.8,2.4-6.8,6.4s3.1,6.4,6.8,6.4c1.5,0,2.8-0.4,3.9-1l-1-3c-0.5,0.5-1.2,0.8-2,0.8c-1.6,0-2.8-0.9-2.8-3.2
	S435.8,199.6,437.3,199.6L437.3,199.6z M370,196.4c-3.8,0-6.8,2.4-6.8,6.4s3.1,6.4,6.8,6.4c3.8,0,6.8-2.4,6.8-6.4
	S373.8,196.4,370,196.4z M370,206.5c-1.1,0-2-1.3-2-3.6c0-2.3,0.9-3.6,2-3.6c1.1,0,2,1.3,2,3.6C372,205.1,371.1,206.5,370,206.5z
	 M464.2,196.4c-3.8,0-6.8,2.4-6.8,6.4s3.1,6.4,6.8,6.4c3.7,0,6.8-2.4,6.8-6.4C471.1,198.8,468,196.4,464.2,196.4z M464.2,206.5
	c-1.1,0-2-1.3-2-3.6c0-2.3,0.9-3.6,2-3.6s2,1.3,2,3.6C466.2,205.1,465.3,206.5,464.2,206.5z M479.4,196.4c-3.8,0-6.8,2.4-6.8,6.4
	s3.1,6.4,6.8,6.4c3.8,0,6.8-2.4,6.8-6.4S483.1,196.4,479.4,196.4z M479.4,206.5c-1.1,0-2-1.3-2-3.6c0-2.3,0.9-3.6,2-3.6s2,1.3,2,3.6
	C481.3,205.1,480.4,206.5,479.4,206.5z M402,206.2c-1.2,0-2-0.7-2.3-2c4.1,0.1,6.5-1.5,6.5-4c0-2.3-2.2-3.9-4.7-3.9
	c-3.8,0-6.8,2.4-6.8,6.4s2.7,6.4,6.5,6.4c3.6,0,5.7-2.7,5.7-2.7l-1.2-2C405.7,204.5,403.9,206.2,402,206.2z M401.5,199.2
	c0.7,0,1,0.6,1,1.2c0,1.1-0.7,1.7-3,1.8C399.7,200.3,400.6,199.2,401.5,199.2z M391.7,204.4v-13.9h-4.6v7.8c-0.9-1.3-2.3-2-3.8-2
	c-2.8,0-5,2.4-5,6.4s2.3,6.4,5,6.4c1.7,0,3.1-0.9,4.1-2.4c0.6,1.7,2,2.4,3.6,2.4l2.4-0.4l0.3-3.3
	C393.7,205.4,391.7,206.6,391.7,204.4z M385.2,206.2c-1.1,0-2-1.2-2-3.5c0-2.2,0.9-3.5,2-3.5c1.1,0,2,1.2,2,3.5
	C387.2,205,386.3,206.2,385.2,206.2z M454.4,204.4v-4.6c0-2.1-0.7-3.4-2.9-3.4c-1.7,0-3.3,0.9-4.2,2.4v-8.2h-4.6v18.3h4.6v-4.4
	c0-4,1.2-5.1,2-5.1c0.5,0,0.7,0.4,0.7,1.2v4.4c0,3.1,1.7,4.3,3.8,4.3c1.6,0,2.4-0.4,2.4-0.4l0.3-3.3
	C456.4,205.4,454.4,206.5,454.4,204.4z M492.5,204.4v-13.9h-4.6v14.3c0,3.1,1.8,4.3,3.9,4.3c1.6,0,2.4-0.4,2.4-0.4l0.3-3.3
	C494.4,205.4,492.5,206.6,492.5,204.4L492.5,204.4z M423.3,198.1c-2.8-1-3.5-1.3-3.5-2.3c0-0.9,0.6-1.4,1.6-1.4
	c2.3,0,5.2,1.5,5.2,1.5l1.3-3.1c0,0-2.1-1.9-6.2-1.9c-4.4,0-6.6,2.3-6.6,5.3c0,2.3,1.1,4.3,4.7,5.4c2.8,0.9,3.3,1.6,3.3,2.5
	c0,1.1-0.8,1.6-2.1,1.6c-2.6,0-5.7-2-5.7-2l-1.5,3.1c0,0,3.1,2.5,7.2,2.5c4.6,0,7-2.3,7-5.7C428,201.2,427.3,199.6,423.3,198.1
	L423.3,198.1z"/>
<path fill="#4CADC1" d="M324.4,190.9v4.4l4.9,4.6l-4.9,4.6v4.4l9.5-9.1C333.9,199.8,324.4,190.9,324.4,190.9z M320.7,204.6l-5-4.6
	l5-4.6V191l-9.6,9.1l9.6,9.1V204.6z M322.5,183c-9.4,0-17,7.6-17,17s7.6,17,17,17s17-7.6,17-17S331.9,183,322.5,183z M322.5,213.9
	c-7.7,0-13.9-6.2-13.9-13.9s6.2-13.9,13.9-13.9c7.7,0,13.9,6.2,13.9,13.9S330.2,213.9,322.5,213.9z"/>
</svg>
